<svg id="Group_3625" data-name="Group 3625" xmlns="http://www.w3.org/2000/svg" width="17.705" height="22.647" viewBox="0 0 17.705 22.647">
  <defs>
    <style>
      .cls-1 {
        fill: #162443;
      }
    </style>
  </defs>
  <path id="Path_8256" data-name="Path 8256" class="cls-1" d="M35.368,39.9a2.029,2.029,0,0,0-.368.028v1.923h.339a.759.759,0,0,0,.707-.339,1.206,1.206,0,0,0,.17-.679C36.216,40.183,35.933,39.9,35.368,39.9Z" transform="translate(-30.39 -31.443)"/>
  <path id="Path_8257" data-name="Path 8257" class="cls-1" d="M26.526,39.9H26.3v.792c.028,0,.141.028.2.028.566,0,.622-.226.622-.424C27.12,40.183,27.12,39.9,26.526,39.9Z" transform="translate(-24.151 -31.443)"/>
  <path id="Path_8258" data-name="Path 8258" class="cls-1" d="M28.995,34.646A1.044,1.044,0,0,0,27.949,33.6h-8.2A1.044,1.044,0,0,0,18.7,34.646V38.1a1.044,1.044,0,0,0,1.046,1.046h8.2A1.044,1.044,0,0,0,28.995,38.1Zm-7.042,1.895a1.5,1.5,0,0,1-.962.283H20.85v1.188h-.679V34.844l.141-.028a4.205,4.205,0,0,1,.792-.085,1.382,1.382,0,0,1,.905.255.938.938,0,0,1,.368.735A.991.991,0,0,1,21.953,36.541Zm2.913.877a1.578,1.578,0,0,1-1.273.537c-.17,0-.424-.028-.792-.057l-.085-.028V34.844l.085-.028a8.7,8.7,0,0,1,.905-.085,1.453,1.453,0,0,1,1.188.481,1.541,1.541,0,0,1,.311,1.046A1.771,1.771,0,0,1,24.866,37.418Zm2.659-2.008H26.167V36h1.244v.679H26.167v1.329H25.46v-3.2h2.065Z" transform="translate(-18.7 -26.925)"/>
  <path id="Path_8259" data-name="Path 8259" class="cls-1" d="M35.226,10v.028H27.675A1.045,1.045,0,0,0,26.6,11.046v5.091h.877V11.584a.7.7,0,0,1,.707-.707h7.042v4.949A1.088,1.088,0,0,0,36.273,16.9h4.95V29.034a.7.7,0,0,1-.707.707H37.347c-.028.028-.028.057-.057.085l-.594.764h4.327a1.051,1.051,0,0,0,1.046-1.075V16.873Z" transform="translate(-24.366 -10)"/>
  <path id="Path_8260" data-name="Path 8260" class="cls-1" d="M31.352,61.971H28.184a.7.7,0,0,1-.707-.707V54.9H26.6v6.844a1.074,1.074,0,0,0,1.075,1.075H32l-.594-.764C31.408,62.027,31.38,62,31.352,61.971Z" transform="translate(-24.366 -42.201)"/>
  <path id="Path_8261" data-name="Path 8261" class="cls-1" d="M49.693,66.484H48.561v-3.9a.471.471,0,0,0-.453-.481H46.695a.5.5,0,0,0-.481.481v3.9H45.083a.266.266,0,0,0-.226.424l2.291,3a.294.294,0,0,0,.453,0l2.291-3A.25.25,0,0,0,49.693,66.484Z" transform="translate(-37.418 -47.365)"/>
</svg>
