<svg xmlns="http://www.w3.org/2000/svg" width="16.808" height="16.804" viewBox="0 0 16.808 16.804">
  <defs>
    <style>
      .cls-1 {
        fill: #162443;
      }
    </style>
  </defs>
  <path id="instagram" class="cls-1" d="M8.331,35.919a4.308,4.308,0,1,0,4.308,4.308A4.3,4.3,0,0,0,8.331,35.919Zm0,7.109a2.8,2.8,0,1,1,2.8-2.8A2.806,2.806,0,0,1,8.331,43.028Zm5.489-7.286a1,1,0,1,1-1-1A1,1,0,0,1,13.82,35.742Zm2.853,1.02a4.973,4.973,0,0,0-1.357-3.521A5.006,5.006,0,0,0,11.8,31.884c-1.387-.079-5.546-.079-6.933,0a5,5,0,0,0-3.521,1.354A4.989,4.989,0,0,0-.016,36.759c-.079,1.387-.079,5.546,0,6.933a4.973,4.973,0,0,0,1.357,3.521A5.012,5.012,0,0,0,4.862,48.57c1.387.079,5.546.079,6.933,0a4.973,4.973,0,0,0,3.521-1.357,5.006,5.006,0,0,0,1.357-3.521C16.752,42.3,16.752,38.15,16.674,36.762ZM14.881,45.18a2.836,2.836,0,0,1-1.6,1.6c-1.106.439-3.731.337-4.953.337s-3.851.1-4.953-.337a2.836,2.836,0,0,1-1.6-1.6c-.439-1.106-.337-3.731-.337-4.953s-.1-3.851.337-4.953a2.836,2.836,0,0,1,1.6-1.6c1.106-.439,3.731-.337,4.953-.337s3.851-.1,4.953.337a2.836,2.836,0,0,1,1.6,1.6c.439,1.106.337,3.731.337,4.953S15.32,44.078,14.881,45.18Z" transform="translate(0.075 -31.825)"/>
</svg>
