<svg xmlns="http://www.w3.org/2000/svg" width="20.522" height="16.854" viewBox="0 0 20.522 16.854">
  <defs>
    <style>
      .cls-1 {
        fill: #162443;
        stroke: #162443;
        stroke-width: 0.5px;
      }
    </style>
  </defs>
  <g id="Group_3449" data-name="Group 3449" transform="translate(-2.235 -4.529)">
    <g id="twitter" transform="translate(2.5 4.779)">
      <g id="Group_3447" data-name="Group 3447">
        <path id="Path_5927" data-name="Path 5927" class="cls-1" d="M22.3,6.687a.452.452,0,0,0-.528.01,1.653,1.653,0,0,1-.454.213,2.135,2.135,0,0,0,.615-1.4.453.453,0,0,0-.715-.336,3.976,3.976,0,0,1-2.167.748,4.3,4.3,0,0,0-7.219,3.15,4.375,4.375,0,0,0,.03.512c-3.954-.1-7.16-3.825-7.193-3.863a.448.448,0,0,0-.385-.158.454.454,0,0,0-.352.223,4.229,4.229,0,0,0,.094,4.49.453.453,0,0,0-.668.392A4.1,4.1,0,0,0,4.99,14.191a.453.453,0,0,0-.262.554,4.051,4.051,0,0,0,2.893,2.829,6.078,6.078,0,0,1-3.476.952,7.228,7.228,0,0,1-1.114-.078.453.453,0,0,0-.351.808,10.492,10.492,0,0,0,6.283,1.878,12.272,12.272,0,0,0,2.362-.21,11.415,11.415,0,0,0,9.19-11.47c1.662-1.526,1.926-2.122,1.968-2.271A.452.452,0,0,0,22.3,6.687ZM19.752,8.924a.451.451,0,0,0-.148.366,10.552,10.552,0,0,1-8.476,10.748,11.581,11.581,0,0,1-2.165.188,10.635,10.635,0,0,1-4.22-.813,6.1,6.1,0,0,0,4.229-1.832.454.454,0,0,0-.338-.758,3.278,3.278,0,0,1-2.762-1.679,2.448,2.448,0,0,0,1.066-.175.453.453,0,0,0-.094-.856,3.352,3.352,0,0,1-2.52-2.654,2.229,2.229,0,0,0,1.092.152.453.453,0,0,0,.228-.794c-.091-.077-2.05-1.779-1.2-4.006C5.586,7.969,8.69,10.7,12.434,10.485a.454.454,0,0,0,.414-.566,3.391,3.391,0,0,1,5.7-3.221.451.451,0,0,0,.315.135h.07A4.8,4.8,0,0,0,20.388,6.6a6.657,6.657,0,0,1-.764.681.453.453,0,0,0,.313.81c.073-.006.4-.034.8-.106C20.481,8.244,20.16,8.553,19.752,8.924Z" transform="translate(-2.5 -4.779)"/>
      </g>
    </g>
  </g>
</svg>
