<svg xmlns="http://www.w3.org/2000/svg" width="243.695" height="121.023" viewBox="0 0 243.695 121.023">
    <defs>
        <style>
            .cls-1{fill:#ab72c1}.cls-2{fill:none;stroke:#bfbdbd;opacity:.845}.cls-3{fill:#fff}.cls-4{filter:url(#Path_7271)}
        </style>
        <filter id="Path_7271" width="77.465" height="121.023" x="0" y="0" filterUnits="userSpaceOnUse">
            <feOffset dy="2"/>
            <feGaussianBlur result="blur" stdDeviation="2.5"/>
            <feFlood/>
            <feComposite in2="blur" operator="in"/>
            <feComposite in="SourceGraphic"/>
        </filter>
    </defs>
    <g id="Group_3915" data-name="Group 3915" transform="translate(-89.467 -2265.02)">
        <path id="Path_7270" d="M23577.918 3597.917h163.115l19.93 34.807-19.93 32.157h-201.41z" class="cls-1" data-name="Path 7270" transform="translate(-23427.801 -1311.88)"/>
        <g class="cls-4" transform="translate(89.47 2265.02)">
            <path id="Path_7271-2" d="M23582.23 3577.414l-61.6 105.519z" class="cls-2" data-name="Path 7271" transform="translate(-23512.7 -3571.66)"/>
        </g>
        <g id="Group_3564" data-name="Group 3564" transform="translate(203.883 2303.632)">
            <path id="Path_6972" d="M533.128 170.356a18.058 18.058 0 0 1-12.827-5.3 18.169 18.169 0 1 1 12.827 5.3zm-10.508-7.62a14.855 14.855 0 1 0-4.355-10.508 14.912 14.912 0 0 0 4.355 10.508z" class="cls-3" data-name="Path 6972" transform="translate(-515 -134.1)"/>
            <path id="Path_7205" d="M547.536 157.946a57 57 0 0 0-5.536-1.751h-.142v.047l-.047-.047v-.047h-.237v-.048h-.331l-.095.047-.095.047v.237l-.095-.189-.095.047-.095.047-.095.047-.095.047-.095.047.095.237-.189-.237.095.237-.189-.189-.142.047-.095.047.047.047h-.095l-.047.047-.095.047-.095.047a.9.9 0 0 0-.473-.237 50.076 50.076 0 0 0-5.017-.426 6.343 6.343 0 0 0-.947.047.951.951 0 0 0-.379.189c-.142.142-3.408 3.6-3.171 7.62a.722.722 0 0 0 .331.568l.426.379.095.095.994.947a2.146 2.146 0 0 0 .379 2.177l.142.142c.047.047.095.095.142.095l.142.095a.361.361 0 0 0 .237.095l.095.047h.047l.142.047a2.01 2.01 0 0 0 .473.8l.142.142c.047.047.047.047.095.047l.047.047.142.095.189.095.142.047.189.047h.095a1.844 1.844 0 0 0 .615.947l.095.095a.165.165 0 0 0 .095.047l.142.095.142.047.142.047.095.047h.284a1.455 1.455 0 0 0 .473.71c.047.047.095.095.142.095l.047.047.095.047.047.047a.165.165 0 0 1 .095.047.147.147 0 0 1 .095.047.285.285 0 0 0 .189.047.284.284 0 0 1 .189.047h.568l.142-.047h.047c.047 0 .095-.047.189-.047.095-.047.189-.047.284-.095l.142-.095.047-.047c.047-.047.095-.047.189-.142l.142-.095.047-.047v-.047a5.075 5.075 0 0 0 2.177.663.924.924 0 0 0 .331-.047.511.511 0 0 0 .331-.142l.426-.284a3.124 3.124 0 0 0 .663.047 2.177 2.177 0 0 0 1.988-.8 2.321 2.321 0 0 0 2.319-1.325 2.866 2.866 0 0 0 1.325-.757 1.884 1.884 0 0 0 .521-1.467.8.8 0 0 0-.142-.473 93.354 93.354 0 0 1 2.225-1.467.684.684 0 0 0 .331-.473 5.9 5.9 0 0 0-4.21-7.333zm-9.75 13.679h-.142l-.095-.047-.047-.047-.047-.047a.824.824 0 0 1-.237-.71c0-.095 0-.189-.095-.237-.047-.047-.189-.095-.237-.047l-.284.047h-.142l-.047.284v-.284l-.095.284v-.284l-.095.284v-.284l-.095-.047-.047-.047-.047-.047-.047-.047a.925.925 0 0 1-.284-.9c0-.095 0-.189-.095-.237a.208.208 0 0 0-.237-.047l-.142.047.047.189-.095-.189v.236l-.095-.189h-.379l-.189-.047-.095-.047-.095-.047-.047-.047a.971.971 0 0 1-.237-.8.361.361 0 0 0-.095-.237.208.208 0 0 0-.237-.047h-.521l-.142.237v-.095l.095-.095-.095-.047-.095-.047-.095-.047-.095-.047-.047-.047a1.089 1.089 0 0 1 0-1.467.83.83 0 0 1 .189-.237 1.24 1.24 0 0 1 1.657-.142 1.187 1.187 0 0 1 .189.331v.095a.657.657 0 0 1 0 .426c0 .095 0 .189.095.237a.362.362 0 0 0 .237.095h.189v-.047l.095.047h.095c.095 0 .142.047.237.047h.047c.047.047.142.095.189.142a.762.762 0 0 1 .189.331v.047a1.311 1.311 0 0 1 .047.426.4.4 0 0 0 .142.237.7.7 0 0 0 .331.047v-.095h.095l.047.047h.237a.427.427 0 0 1 .237.047h.047c.095.047.142.047.189.095l.047.047c.047.047.095.142.142.189 0 .047.047.047.047.095a.285.285 0 0 1 .047.189.806.806 0 0 1 0 .473.269.269 0 0 0 .189.331h.142l.142-.047h.284a.174.174 0 0 1 .142.047l.047.047c.047 0 .095.047.142.095h.047a1.254 1.254 0 0 1-.142 1.467l-.142.142-.047.047-.047.047c-.047.047-.047.047-.095.047l-.095.047c-.047 0-.095.047-.142.047l-.142.047-.284-.237-.047.237zm3.077-14.1l-.095-.237.189.237.095-.047-.095-.237.142.237.095-.047-.095-.237.189.237-.095-.237v.047c0 .047.047.047.095.095l.095.095-.047-.047h.189l.095-.047v-.047h.189c.047 0 .047 0 .047-.047v.047c.426.047 3.408 1.041 5.348 1.7a5.185 5.185 0 0 1 3.692 6.3c-.71.473-1.8 1.231-2.225 1.467l-3.5-2.651a.174.174 0 0 0-.142-.047h-.142L544.7 164h-.047a2.712 2.712 0 0 1-.663-.189 1.681 1.681 0 0 1-.426-.189c-.095-.047-.142-.095-.237-.142h-.047c-.095-.047-.142-.095-.237-.142l-.047-.047a.369.369 0 0 1-.189-.189l-.047-.047-.189-.189c0-.047-.047-.047-.095-.095s-.095-.142-.142-.189l-.095-.142a.359.359 0 0 1-.095-.189c0-.047-.095-.142-.142-.237s-.047-.095-.047-.142c-.047-.142-.095-.237-.142-.379 0-.047 0-.047-.047-.095-.047-.189-.095-.331-.142-.521a.265.265 0 0 0-.284-.237.174.174 0 0 0-.142.047 12.468 12.468 0 0 1-1.325.095.26.26 0 0 0-.237.142v.047l-.047.047-.047.047v.047c0 .047-.047.047-.047.095l-.047.047h-.095l-.047.047v.047l-.095.095-.047.095-.142.189-.284.331-.237.237-.426.284-.047.047c-.047.047-.142.047-.189.095h-.339a.426.426 0 0 1-.237-.047.733.733 0 0 1-.379-.379 2.327 2.327 0 0 1 .426-1.515 2.794 2.794 0 0 0 .189-.379l.047-.047v-.284a2.873 2.873 0 0 1 .379-1.231 1.106 1.106 0 0 1 .331-.331l.095-.047a3.268 3.268 0 0 1 .379-.142h.047l.284-.047.095-.047.095-.047h.047l.095-.047.095-.047c.047 0 .047-.047.095-.047h.095l.095-.047.142-.095.095-.047.095-.047.047-.047-.047-.047v-.047l.095.095.047-.047.095-.047.095-.047.095-.047.237-.095.095-.047-.095-.237zm6.106 11.691a.26.26 0 0 0-.189.284c0 .947-1.278.994-1.515.994h-.237a.285.285 0 0 0-.189-.047c-.142 0-.189.142-.237.237-.095.9-2.035.521-2.035.521a.285.285 0 0 0-.189.047l-.663.426a3.543 3.543 0 0 1-1.7-.473 9736.451 9736.451 0 0 1 .095-.473 1.284 1.284 0 0 0 0-.426v-.189a.763.763 0 0 0-.142-.426c0-.047-.047-.095-.047-.142a1.2 1.2 0 0 0-.379-.473l-.047-.047c-.047-.047-.095-.095-.142-.095l-.095-.047-.095-.047c-.095-.047-.142-.047-.237-.095l-.095-.047h-.047a2.265 2.265 0 0 0-.615-1.089h-.047l-.142-.095-.142-.095h-.095a.174.174 0 0 0-.142-.047l-.047-.047-.095-.047h-.189a1.854 1.854 0 0 0-.473-.757l-.142-.142-.047-.047-.095-.095-.047-.047-.095-.047-.095-.047-.095-.047a.165.165 0 0 1-.095-.047l-.095-.047h-.095a2.061 2.061 0 0 0-.473-.9l-.047-.047a.653.653 0 0 0-.189-.142l-.095-.047-.142-.095-.047-.047h-.047l-.189-.047c-.047 0-.095-.047-.142-.047l-.473-.047H534l-.284.047h-.142l-.142.047c-.047 0-.047 0-.095.047l-.189.047-.142.047h-.047l-.047.047-.095.047c-.047 0-.047.047-.095.047l-.189.142c-.047.047-.095.095-.142.095l-.047.047-.095.095-.852-.757-.521-.473c-.142-3.266 2.367-6.248 2.84-6.674a26.294 26.294 0 0 1 4.307.237l-.047.047a2.6 2.6 0 0 0-.426.331c-.047 0-.047.047-.095.095a3.314 3.314 0 0 0-.284.426l-.095.095a2.9 2.9 0 0 0-.237.568c0 .047-.047.142-.047.189a2.768 2.768 0 0 0-.095.615v.189a1.557 1.557 0 0 1-.142.284 3.153 3.153 0 0 0-.473 2.319 1.68 1.68 0 0 0 .852.947h.047l.142.047.095.047.142.047.142.047h.237a.285.285 0 0 0 .189-.047h.142l.095-.047.284-.142.142-.047c.047-.047.095-.047.142-.095l.095-.047c.047-.047.047-.047.095-.047l.142-.095.095-.095.095-.095.095-.095.095-.095.047-.047a8.7 8.7 0 0 0 .8-1.041h.095l.473-.047a6.33 6.33 0 0 0 .331.852l.047.095a6.942 6.942 0 0 0 .426.615l.095.095a3.789 3.789 0 0 0 1.373 1.089 5.2 5.2 0 0 0 1.657.521l3.408 2.6a2.509 2.509 0 0 0 .331.426.873.873 0 0 1-.237.757 1.956 1.956 0 0 1-1.089.521c-.095-.047-.142-.142-.237-.189z" class="cls-3" data-name="Path 7205" transform="translate(-522.781 -145.687)"/>
        </g>
    </g>
</svg>
