<svg xmlns="http://www.w3.org/2000/svg" id="Group_3444" width="66.35" height="65.975" data-name="Group 3444" viewBox="0 0 66.35 65.975">
    <defs>
        <style>
            .cls-1,.cls-2{fill:#a12023}.cls-2{fill-rule:evenodd}
        </style>
    </defs>
    <path id="Path_2457" d="M72.313 54.011l-5.4-1.149.175-.824.818.174a2.277 2.277 0 0 1-.634-.745 1.043 1.043 0 0 1-.059-.626 1.834 1.834 0 0 1 .5-.879l.784.5a1.321 1.321 0 0 0-.342.628.9.9 0 0 0 .066.579 1.006 1.006 0 0 0 .43.447 3.609 3.609 0 0 0 1.036.38l2.83.6zM69 55.392a6.79 6.79 0 0 1-.216 1.555 3.5 3.5 0 0 0-.119.829.819.819 0 0 0 1.206.7 1.228 1.228 0 0 0 .53-.685 1.934 1.934 0 0 0 .124-.984 1.46 1.46 0 0 0-.383-.811 2.251 2.251 0 0 0-.82-.477zm1.981.677a3.557 3.557 0 0 1 .225 1.159 2.9 2.9 0 0 1-.2 1.03 2 2 0 0 1-.916 1.147 1.474 1.474 0 0 1-1.237.049 1.5 1.5 0 0 1-.627-.438 1.524 1.524 0 0 1-.329-.644 2.309 2.309 0 0 1-.045-.74 6.59 6.59 0 0 1 .167-.827 8.523 8.523 0 0 0 .3-1.676l-.225-.092a1.027 1.027 0 0 0-.848-.037 1.555 1.555 0 0 0-.679.881 1.654 1.654 0 0 0-.134 1 1.42 1.42 0 0 0 .6.729l-.445.808a2.266 2.266 0 0 1-.739-.723 1.793 1.793 0 0 1-.224-.973 3.7 3.7 0 0 1 .266-1.24 3.322 3.322 0 0 1 .568-1.013 1.531 1.531 0 0 1 .625-.469 1.484 1.484 0 0 1 .7-.044 5.393 5.393 0 0 1 .822.266l1.166.448a13.065 13.065 0 0 0 1.563.536 2.072 2.072 0 0 0 .7.017l-.35.914a1.982 1.982 0 0 1-.699-.067zm-3.4 8.767l-6.672-3.7.454-.819 2.393 1.327a2.1 2.1 0 0 1 .144-1.814 2.227 2.227 0 0 1 .73-.814 1.406 1.406 0 0 1 .9-.243 3.09 3.09 0 0 1 1.178.43l3.064 1.7-.455.82-3.063-1.7a1.451 1.451 0 0 0-1.041-.23 1.137 1.137 0 0 0-.7.6 1.518 1.518 0 0 0-.19.79 1.21 1.21 0 0 0 .259.741 2.681 2.681 0 0 0 .816.63l2.643 1.466zm-1.527 1.87L61.7 63.3l.577-.739 4.353 3.4zm-5.162-4.033l-.85-.664.577-.739.85.664zm2.63 6.9l-5.476-2.23.675-.723L61.952 68q.523.224 1.056.5a16.12 16.12 0 0 1-.532-.971l-1.627-3.2.657-.7 2.614 5.3zm-4.633.442a6.818 6.818 0 0 1-.965 1.238 3.5 3.5 0 0 0-.518.659.819.819 0 0 0 .7 1.2 1.219 1.219 0 0 0 .8-.329 1.924 1.924 0 0 0 .6-.789 1.461 1.461 0 0 0 .073-.893 2.262 2.262 0 0 0-.471-.822zm1.378 1.577a3.572 3.572 0 0 1-.385 1.116 2.929 2.929 0 0 1-.689.792 2.012 2.012 0 0 1-1.367.535 1.472 1.472 0 0 1-1.095-.576 1.5 1.5 0 0 1-.324-.693 1.534 1.534 0 0 1 .037-.723 2.3 2.3 0 0 1 .331-.664 6.672 6.672 0 0 1 .558-.632 8.458 8.458 0 0 0 1.095-1.3c-.078-.1-.127-.167-.149-.193a1.029 1.029 0 0 0-.715-.459 1.556 1.556 0 0 0-1.028.424 1.656 1.656 0 0 0-.613.794 1.42 1.42 0 0 0 .155.93l-.79.477a2.278 2.278 0 0 1-.278-1 1.8 1.8 0 0 1 .292-.954 3.693 3.693 0 0 1 .852-.941 3.327 3.327 0 0 1 1-.594 1.541 1.541 0 0 1 .77-.085 1.506 1.506 0 0 1 .628.313 5.406 5.406 0 0 1 .579.641l.786.971A13.021 13.021 0 0 0 61 71.017a2.094 2.094 0 0 0 .6.367l-.76.616a1.962 1.962 0 0 1-.571-.412zm-6.133 7.155l-.5-.727a2.107 2.107 0 0 0 .512-.178 1.028 1.028 0 0 0 .392-.326.832.832 0 0 0 .134-.4 4.3 4.3 0 0 0-.074-.749 9.055 9.055 0 0 1-.034-.242l-4.449-3.9.885-.484 2.518 2.285q.482.434.954.943a12.687 12.687 0 0 1-.251-1.293l-.469-3.4.827-.44.782 5.949a11.01 11.01 0 0 1 .125 1.354 1.855 1.855 0 0 1-.186.868 1.357 1.357 0 0 1-.579.553 1.883 1.883 0 0 1-.586.182zM47.2 76.052a2.4 2.4 0 0 0 .94 1.356 1.352 1.352 0 0 0 1.17.153 1.328 1.328 0 0 0 .822-.815 2.318 2.318 0 0 0-.093-1.589 2.591 2.591 0 0 0-.955-1.431 1.341 1.341 0 0 0-1.192-.151 1.3 1.3 0 0 0-.819.822 2.512 2.512 0 0 0 .127 1.655zm3.7 1.644l-.227-.66a1.716 1.716 0 0 1-1.193 1.281 2.166 2.166 0 0 1-1.267.051 2.389 2.389 0 0 1-1.144-.682 3.511 3.511 0 0 1-.776-1.32 3.949 3.949 0 0 1-.229-1.508 2.173 2.173 0 0 1 .447-1.245 2.218 2.218 0 0 1 1.05-.743 1.852 1.852 0 0 1 1.689.223l-.899-2.593.88-.3 2.484 7.213zm-5.727 1.581l-1.054-5.423.921-.179 1.046 5.425zm-1.25-6.43l-.206-1.058.921-.179.206 1.058zm-3.263 6.942l-3.609-7.342 1.09-.095 2.45 5.348c.2.428.366.833.506 1.209.083-.424.183-.85.3-1.279l1.569-5.7L44 71.84l-2.316 7.86zm-8.314-3.477a6.82 6.82 0 0 1-1.568-.079 3.475 3.475 0 0 0-.836-.046.819.819 0 0 0-.588 1.261 1.225 1.225 0 0 0 .729.468 1.926 1.926 0 0 0 .991.038 1.463 1.463 0 0 0 .775-.452 2.251 2.251 0 0 0 .4-.858zm-.5 2.033a3.549 3.549 0 0 1-1.135.325 2.913 2.913 0 0 1-1.044-.111 2.009 2.009 0 0 1-1.223-.812 1.475 1.475 0 0 1-.156-1.227 1.492 1.492 0 0 1 .383-.663 1.514 1.514 0 0 1 .612-.384 2.291 2.291 0 0 1 .734-.109 6.594 6.594 0 0 1 .838.094 8.552 8.552 0 0 0 1.7.15l.072-.232a1.027 1.027 0 0 0-.033-.849 1.555 1.555 0 0 0-.937-.6 1.659 1.659 0 0 0-1-.047 1.421 1.421 0 0 0-.674.66l-.844-.373a2.278 2.278 0 0 1 .655-.8 1.8 1.8 0 0 1 .95-.307 3.694 3.694 0 0 1 1.259.157 3.342 3.342 0 0 1 1.059.477 1.529 1.529 0 0 1 .511.582 1.488 1.488 0 0 1 .1.694 5.347 5.347 0 0 1-.193.842l-.344 1.2a12.7 12.7 0 0 0-.4 1.6 2.066 2.066 0 0 0 .044.7l-.94-.27a1.976 1.976 0 0 1-.002-.697zm-9.532-.562l.277-.841a2.139 2.139 0 0 0 .451.3 1.023 1.023 0 0 0 .5.116.832.832 0 0 0 .4-.134 4.343 4.343 0 0 0 .553-.51c.038-.041.1-.1.173-.173l.441-5.9.914.426-.323 3.385c-.038.431-.1.875-.179 1.33a13.037 13.037 0 0 1 .879-.982l2.432-2.419.848.4-4.279 4.2a11.105 11.105 0 0 1-1.001.919 1.858 1.858 0 0 1-.8.373 1.359 1.359 0 0 1-.79-.13 1.853 1.853 0 0 1-.505-.36zM21.17 74.65l2.762-4.785.812.469-2.762 4.785zm3.275-5.673l.54-.934.811.469-.539.934zm-3.5 2.2a6.884 6.884 0 0 1-1.412-.687 3.488 3.488 0 0 0-.752-.369.82.82 0 0 0-1.034.932 1.227 1.227 0 0 0 .489.715 1.926 1.926 0 0 0 .9.423 1.465 1.465 0 0 0 .89-.114 2.267 2.267 0 0 0 .706-.633zm-1.256 1.675a3.546 3.546 0 0 1-1.172-.144 2.9 2.9 0 0 1-.917-.51 2.012 2.012 0 0 1-.809-1.226 1.475 1.475 0 0 1 .337-1.191 1.5 1.5 0 0 1 .611-.46 1.532 1.532 0 0 1 .714-.114 2.28 2.28 0 0 1 .717.186 6.571 6.571 0 0 1 .735.414 8.46 8.46 0 0 0 1.5.8l.157-.185a1.027 1.027 0 0 0 .3-.794 1.556 1.556 0 0 0-.629-.918 1.667 1.667 0 0 0-.9-.436 1.431 1.431 0 0 0-.879.345l-.631-.673a2.278 2.278 0 0 1 .916-.479 1.8 1.8 0 0 1 .994.087 3.71 3.71 0 0 1 1.1.637 3.335 3.335 0 0 1 .788.853 1.53 1.53 0 0 1 .243.736 1.492 1.492 0 0 1-.175.679 5.362 5.362 0 0 1-.507.7l-.786.97a13.087 13.087 0 0 0-.992 1.322 2.06 2.06 0 0 0-.234.664l-.77-.615a1.974 1.974 0 0 1 .287-.645zM10.468 64.5l4.232-3.553.538.641-.594.5a1.955 1.955 0 0 1 1.768.705 1.81 1.81 0 0 1 .45.934 1.354 1.354 0 0 1-.19.882 1.987 1.987 0 0 1 1.839.685 1.68 1.68 0 0 1 .463 1.262 1.94 1.94 0 0 1-.789 1.239l-2.905 2.438-.6-.712 2.666-2.238a2.587 2.587 0 0 0 .563-.59.813.813 0 0 0 .091-.509 1.041 1.041 0 0 0-.247-.528 1.306 1.306 0 0 0-.92-.492 1.711 1.711 0 0 0-1.2.5L13.18 67.73l-.6-.717 2.75-2.308a1.586 1.586 0 0 0 .571-.778.868.868 0 0 0-.243-.775 1.354 1.354 0 0 0-.629-.425 1.177 1.177 0 0 0-.778.018 3.429 3.429 0 0 0-.983.628l-2.2 1.842zm.091-5.949a2.347 2.347 0 0 0-1.206 1.134 1.541 1.541 0 0 0 1.058 2.072 2.415 2.415 0 0 0 1.651-.323 2.281 2.281 0 0 0 1.174-1.121 1.544 1.544 0 0 0-1.053-2.07 2.34 2.34 0 0 0-1.623.307zm-.437-.858a2.844 2.844 0 0 1 2.414-.271 2.571 2.571 0 0 1 1.336 1.268 2.479 2.479 0 0 1 .18 2 2.837 2.837 0 0 1-1.509 1.58 3.652 3.652 0 0 1-1.641.477 2.263 2.263 0 0 1-1.269-.4 2.716 2.716 0 0 1-.907-1.037 2.482 2.482 0 0 1-.189-2.01 2.968 2.968 0 0 1 1.586-1.608zM8 51.534l.327.9a2.085 2.085 0 0 0-.826.547 1.722 1.722 0 0 0-.375.894 2.92 2.92 0 0 0 .085 1.189 2.819 2.819 0 0 0 .429.94 1.421 1.421 0 0 0 .625.515 1.094 1.094 0 0 0 .688.04.985.985 0 0 0 .551-.365 1.535 1.535 0 0 0 .257-.779 13.956 13.956 0 0 0 .009-1.408 6.927 6.927 0 0 1 .079-1.546 2.069 2.069 0 0 1 .475-.971 1.746 1.746 0 0 1 .849-.5 1.934 1.934 0 0 1 1.126.037 2.032 2.032 0 0 1 .986.727 3.66 3.66 0 0 1 .613 1.285 3.82 3.82 0 0 1 .123 1.517 2.16 2.16 0 0 1-.518 1.171 2.33 2.33 0 0 1-1.064.673l-.321-.916a1.566 1.566 0 0 0 .918-.793 2.051 2.051 0 0 0 .013-1.379 2.14 2.14 0 0 0-.67-1.2 1.011 1.011 0 0 0-.889-.2.868.868 0 0 0-.577.462 4.007 4.007 0 0 0-.131 1.611 10.181 10.181 0 0 1-.032 1.757 2.342 2.342 0 0 1-.5 1.152 1.9 1.9 0 0 1-.967.586 2.06 2.06 0 0 1-1.2-.039 2.3 2.3 0 0 1-1.068-.75 3.5 3.5 0 0 1-.669-1.342 4.364 4.364 0 0 1-.157-1.754 2.428 2.428 0 0 1 .592-1.3A2.563 2.563 0 0 1 8 51.534z" class="cls-1" data-name="Path 2457" transform="translate(-6.157 -13.814)"/>
    <path id="Path_2458" d="M57.445 35.51q.5-.569.983-1.133.541-.674.393-1.1a1.7 1.7 0 0 0-.279-.516 1.323 1.323 0 0 0-.489-.366l-.614.654a8.1 8.1 0 0 1 .474.4 1.021 1.021 0 0 1 .238.281c.021.061-.021.17-.126.327q-.482.678-.968 1.343zm5.339-4.82l.249.618-3.77 1.522-.257 1.17 4.4-1.777.29.717.846-.342-.908-2.249zm-1.343-2.672l.432.779-1.174.65-.214-.384a.141.141 0 0 0-.137-.063.467.467 0 0 0-.216.065.653.653 0 0 0-.339.384l-.33 1.041a.6.6 0 0 0-.02.22.437.437 0 0 0 .041.174.309.309 0 0 0 .181.15.273.273 0 0 0 .223-.019l.394-.219.635 1.144.891-.494-.635-1.146 1.174-.65.426.77.8-.442-1.332-2.4zm-1.168-1.784l.352.565-3.448 2.155-.05 1.195 4.022-2.513.409.655.774-.483-1.285-2.057zm-.482-.71l.425.525.709-.574-1.533-1.894-.709.575.622.767a.313.313 0 0 1 .012.245.51.51 0 0 1-.168.226.714.714 0 0 1-.4.16.394.394 0 0 1-.362-.149l-.284-.35a.531.531 0 0 0-.266.132 2.059 2.059 0 0 0-.659 1.045 1.323 1.323 0 0 0 .163 1.276 1.859 1.859 0 0 0 .963.643l.951-.77a1.651 1.651 0 0 1-.754-.155 1.622 1.622 0 0 1-.593-.451.578.578 0 0 1-.119-.291.274.274 0 0 1 .093-.268.906.906 0 0 0 .729.183 1.577 1.577 0 0 0 .769-.346 1.36 1.36 0 0 0 .412-.529zM56.6 23.379a.869.869 0 0 0-.756-.228 1.577 1.577 0 0 0-.888.543 2.131 2.131 0 0 0-.422 1.177 6.847 6.847 0 0 0 .005 1.693l.4.183a4.4 4.4 0 0 1 .5-2.454.729.729 0 0 1 .447-.259.5.5 0 0 1 .407.145c.167.156.2.289.1.4l-.607.652.323.77.706-.758a.4.4 0 0 1 .3-.134.439.439 0 0 1 .309.125.754.754 0 0 1 .184.274 1.142 1.142 0 0 0 .2-.542.529.529 0 0 0-.149-.469l-.079-.073a.516.516 0 0 0-.335-.136.688.688 0 0 0-.38.085 1.017 1.017 0 0 0 .014-.471.913.913 0 0 0-.279-.523zm.271-2.227l-.622.667 2.174 2.028.623-.667zm-2.551-.783l.524.41-2.5 3.2.361 1.14 2.92-3.737.609.475.561-.718-1.911-1.493zm-1.293-1.908l-.483.774 1.775 1.109.483-.774zm.705 3.629a1.692 1.692 0 0 1-1.3-.119c-.182-.114-.239-.246-.17-.4a.646.646 0 0 1 .688-.26 2.21 2.21 0 0 1 .926.331l.06-.887a1.77 1.77 0 0 0-1.143-.328 1.1 1.1 0 0 0-.822.556 1.287 1.287 0 0 0-.14 1.045 1.379 1.379 0 0 0 .6.865 1.181 1.181 0 0 0 .333.144.913.913 0 0 0 .366.014zm-4.17-2.863l-.56 1.1a1.527 1.527 0 0 1 .584-.082 1.344 1.344 0 0 1 .5.143.557.557 0 0 1 .135.291.493.493 0 0 1-.053.28 1.006 1.006 0 0 1-.391.39 1.807 1.807 0 0 1-.564.231.7.7 0 0 0-.1.383.53.53 0 0 0 .333.387.587.587 0 0 0 .647-.11 2.049 2.049 0 0 0 .588-.73 1.806 1.806 0 0 0 .158-1.184 1.366 1.366 0 0 0-.731-1.023.693.693 0 0 0-.546-.076zm.991-.881l1.864.95.413-.812-1.864-.95zm-1.428-2.968c-.155-.179-.291-.33-.409-.453a2.345 2.345 0 0 0-.559-.484l-.971-.432.1 1.138.6.266a4.89 4.89 0 0 1 .942.654 2.563 2.563 0 0 1 .721.756l.686.3q-.159-.986-.295-1.658a14.535 14.535 0 0 0-.415-1.654c-.164-.511-.325-.8-.482-.871l-.97-.432.1 1.148.3.136a2.37 2.37 0 0 1 .4.894q.188.546.252.693zm-.916 1.986l.625.228-1.391 3.821.7.973 1.622-4.457.726.264.312-.857-2.279-.829zm.016.061l.251-.876-2.032-.582-.252.876zm-.056 1.748a1.839 1.839 0 0 1-1.21.211.414.414 0 0 1-.3-.544q.1-.351 1.344-.329l-.1-.831a2.594 2.594 0 0 0-1.194.193 1.21 1.21 0 0 0-.7.781 1.524 1.524 0 0 0 .208.992 1.292 1.292 0 0 0 .781.62 1.441 1.441 0 0 0 .408.056 1.55 1.55 0 0 0 .457-.075zm-5.291 2.9a1.244 1.244 0 0 0-.265-.906 1.132 1.132 0 0 0-.837-.408 1.621 1.621 0 0 0-.705.085 1.233 1.233 0 0 0-.54.495l.488.712a1.734 1.734 0 0 1 .446-.459.665.665 0 0 1 .391-.129.425.425 0 0 1 .3.15.416.416 0 0 1 .108.309.59.59 0 0 1-.2.437 1.055 1.055 0 0 1-.754.162 1.849 1.849 0 0 1-1.1-.679 5.54 5.54 0 0 1-.757-1.021l-.578-.04q.751 1.117.77 1.14a4.329 4.329 0 0 0 .82.886 1.888 1.888 0 0 0 1.026.4 1.3 1.3 0 0 0 .987-.275 1.206 1.206 0 0 0 .401-.854zM40.546 16.3h.665v4.067l.987.676V16.3h.772v-.912h-2.424zm.091-.147l-.064-.91-2.419.169.063.91zm-1.372 1a.662.662 0 0 0-.521.321 1.167 1.167 0 0 0-.168.748 2.633 2.633 0 0 0 .454 1.259 9 9 0 0 0 1.159 1.35l.411-.277a4.433 4.433 0 0 1-.891-.975 2.048 2.048 0 0 1-.4-.913.52.52 0 0 1 .1-.356.471.471 0 0 1 .37-.172l1.424-.1-.071-1.017zm-6.25.348l.64-.184 1.121 3.909 1.136.378-1.312-4.561.742-.214-.251-.876-2.331.668zm-2.269-.013l.342.846 1.94-.784-.342-.846zm3.354 1.561a1.691 1.691 0 0 1-.863.985c-.2.081-.339.049-.421-.1a.647.647 0 0 1 .194-.709 2.237 2.237 0 0 1 .812-.554l-.682-.569a1.769 1.769 0 0 0-.937.731 1.107 1.107 0 0 0-.033.992 1.288 1.288 0 0 0 .763.728 1.375 1.375 0 0 0 1.055.019 1.133 1.133 0 0 0 .313-.184.91.91 0 0 0 .225-.287zm-4-1.3a9.356 9.356 0 0 0-1.864-.943 2.1 2.1 0 0 0-1.346-.2l-.97.432.916.684.6-.266a1.323 1.323 0 0 1 .833.023 4.9 4.9 0 0 1 1.227.54zm-1.3 2.63a.815.815 0 0 0-.312.621 1.635 1.635 0 0 0 .243.828 2.009 2.009 0 0 0 1.042.883 1.562 1.562 0 0 0 1.4-.016l.219-.159a3.108 3.108 0 0 1 .436.189.818.818 0 0 1 .331.307l.666-.37q-.19-.164-.3-.251a1.352 1.352 0 0 0-.631-.276 1.665 1.665 0 0 0 .088-.459.75.75 0 0 0-.106-.3 1.591 1.591 0 0 0-.352-.48.578.578 0 0 0-.667.015.69.69 0 0 0-.313.376.508.508 0 0 0 .262.682.553.553 0 0 1-.176.147.8.8 0 0 1-.669.045.833.833 0 0 1-.5-.356.8.8 0 0 1-.089-.46.455.455 0 0 1 .245-.387l1.239-.687-.822-1.484.779-.431-.442-.8-3.463 1.919.442.8 1.923-1.066.385.694zm-3.559 1.634l.524-.41 2.5 3.2 1.194-.075L26.539 21l.609-.475-.561-.719-1.912 1.494zm-1.724 1.62l.479-.462 2.82 2.929L28 25.9l-3.3-3.411.556-.536-.634-.657-1.743 1.684zm-.51 2.067a.415.415 0 0 0-.074.323.521.521 0 0 0 .171.356.34.34 0 0 0 .255.085l1.346.028a.5.5 0 0 0 .366-.118c.048-.053.053-.1.016-.13l-.75-.675 1.1-1.22-.67-.6zm-1.88-.8l.677.611 1.7-1.89-.677-.611zm-.734 2.689l.391-.539 3.29 2.391 1.127-.4-3.837-2.788.454-.624-.738-.536-1.425 1.962zm-1.151 1.955l.342-.571 3.486 2.094 1.087-.5-4.065-2.443.4-.662-.783-.462-1.249 2.079zm-2.212 3.068l.852.327 1.142-2.976-.852-.326zm4.428-.185a.976.976 0 0 0-.638.582.682.682 0 0 0-.012.5.565.565 0 0 0 .348.335.474.474 0 0 0 .495-.074 1.193 1.193 0 0 0 .354-.519l.085-.22.966-.331-.038-.589-.869.2a1.342 1.342 0 0 0-.178-.717.963.963 0 0 0-.49-.447 1.058 1.058 0 0 0-1 .271 3.34 3.34 0 0 0-.774.818l.785-2.044-.832-.319-.865 2.254a.724.724 0 0 0-.015.488.48.48 0 0 0 .288.329q.521.2 1.293-.509t.973-.632a.279.279 0 0 1 .178.24.767.767 0 0 1-.054.383z" class="cls-1" data-name="Path 2458" transform="translate(-7.744 -6.195)"/>
    <path id="Path_2459" d="M68.091 28.532l.381.728a.594.594 0 0 0-.271.315.708.708 0 0 0 .028.459.8.8 0 0 0 .264.409.255.255 0 0 0 .238.031.213.213 0 0 0 .126-.1.654.654 0 0 0 .012-.29 4.369 4.369 0 0 1-.032-1.3.79.79 0 0 1 .534-.567.844.844 0 0 1 .734.079 1.462 1.462 0 0 1 .574.832 1.708 1.708 0 0 1 .11.95 1.041 1.041 0 0 1-.436.594l-.382-.676a.473.473 0 0 0 .2-.265.679.679 0 0 0-.037-.4.876.876 0 0 0-.234-.4.2.2 0 0 0-.185-.033.177.177 0 0 0-.112.124 3.045 3.045 0 0 0 .03.79 2.224 2.224 0 0 1-.046.97.747.747 0 0 1-.487.436.927.927 0 0 1-.8-.1 1.556 1.556 0 0 1-.623-.885 1.712 1.712 0 0 1-.083-1.019 1.159 1.159 0 0 1 .5-.674m.424-1.583a.778.778 0 0 0 .408-.39.554.554 0 0 0-.012-.459.561.561 0 0 0-.36-.314.748.748 0 0 0-.547.067zm-.761.3l.219.788a1.319 1.319 0 0 1-.82-.16 1.444 1.444 0 0 1-.565-.663 1.369 1.369 0 0 1-.026-1.291 1.754 1.754 0 0 1 .828-.72 1.687 1.687 0 0 1 1.249-.143 1.308 1.308 0 0 1 .815.729 1.361 1.361 0 0 1 .046 1.168 2 2 0 0 1-1.092.926l-.858-1.839a.813.813 0 0 0-.424.414.614.614 0 0 0 .015.508.5.5 0 0 0 .229.246.641.641 0 0 0 .381.034zm.791-3.237l-.559.322-.277-.478-1.068.617a3.055 3.055 0 0 0-.371.231.182.182 0 0 0-.053.114.231.231 0 0 0 .033.138 1.093 1.093 0 0 0 .231.244l-.508.373a1.606 1.606 0 0 1-.425-.494 1.041 1.041 0 0 1-.134-.378.576.576 0 0 1 .037-.319.742.742 0 0 1 .216-.256 3.922 3.922 0 0 1 .481-.307l1.156-.667-.186-.322.559-.322.186.321.527-.3.807.463-.936.541zm-2.988-1.855a5.02 5.02 0 0 1-.372-.346 1.543 1.543 0 0 0-.358-.293.338.338 0 0 0-.325.023.4.4 0 0 0-.178.266.442.442 0 0 0 .073.338.7.7 0 0 0 .348.272.5.5 0 0 0 .331.016 1.578 1.578 0 0 0 .348-.189zm-.041-1.265l-.289-.688a1.142 1.142 0 0 1 .782 0 1.566 1.566 0 0 1 .669.638 1.933 1.933 0 0 1 .332.747.809.809 0 0 1-.07.489 1.675 1.675 0 0 1-.549.486l-.8.507a3.228 3.228 0 0 0-.477.357 1.758 1.758 0 0 0-.265.345l-.436-.672a4.2 4.2 0 0 1 .223-.275 1.493 1.493 0 0 1-.5-.208 1.272 1.272 0 0 1-.359-.368 1.05 1.05 0 0 1-.191-.764.856.856 0 0 1 .4-.582.875.875 0 0 1 .455-.148.814.814 0 0 1 .45.122 2.736 2.736 0 0 1 .509.437 4.376 4.376 0 0 0 .594.551l.067-.044a.421.421 0 0 0 .217-.278.685.685 0 0 0-.154-.419.574.574 0 0 0-.255-.237.586.586 0 0 0-.353.004zm-3.059-.543l-.509-.629 2.377-1.928.473.584-.337.273a1.3 1.3 0 0 1 .536.013.64.64 0 0 1 .3.21 1.017 1.017 0 0 1 .217.511l-.706.249a.7.7 0 0 0-.137-.378.444.444 0 0 0-.254-.166.628.628 0 0 0-.38.069 4.747 4.747 0 0 0-.84.593zm-.187-2.924a.781.781 0 0 0 .259-.5.583.583 0 0 0-.6-.61.743.743 0 0 0-.5.242zm-.621.535l.464.675a1.317 1.317 0 0 1-.828.115 1.431 1.431 0 0 1-.75-.442 1.368 1.368 0 0 1-.446-1.212 1.753 1.753 0 0 1 .548-.951 1.689 1.689 0 0 1 1.133-.541 1.309 1.309 0 0 1 1.009.424 1.359 1.359 0 0 1 .424 1.089 2 2 0 0 1-.732 1.232l-1.409-1.46a.815.815 0 0 0-.266.53.613.613 0 0 0 .18.475.5.5 0 0 0 .3.159.636.636 0 0 0 .373-.098zm-3.14-3.668a1.314 1.314 0 0 0-.315.647.64.64 0 0 0 .243.6.574.574 0 0 0 .5.1 1.118 1.118 0 0 0 .593-.452 1.2 1.2 0 0 0 .316-.714.6.6 0 0 0-.241-.483.614.614 0 0 0-.521-.12 1.039 1.039 0 0 0-.575.417zm-1.616.764l2.6-3.328.638.5-.937 1.2a1.145 1.145 0 0 1 .962.21 1.2 1.2 0 0 1 .48.888 1.678 1.678 0 0 1-.428 1.142 1.776 1.776 0 0 1-1.038.722 1.165 1.165 0 0 1-.975-.225 1.12 1.12 0 0 1-.327-.422 1.243 1.243 0 0 1-.108-.576l-.277.354zm-1.292-.9l1.622-2.595.686.429-1.621 2.595zm1.841-2.947l.4-.635.687.429-.4.635zm-4.937 1.112l2.031-3.664.746.413-1.685 3.036 1.854 1.027-.345.623zM50.172 9.44a.782.782 0 0 0-.007-.565.584.584 0 0 0-.82-.255.741.741 0 0 0-.324.446zm-.3.764l.726.378a1.32 1.32 0 0 1-.676.49 1.442 1.442 0 0 1-.87-.038 1.368 1.368 0 0 1-.962-.861 1.749 1.749 0 0 1 .038-1.1 1.686 1.686 0 0 1 .747-1.01 1.309 1.309 0 0 1 1.089-.1 1.359 1.359 0 0 1 .886.763 2 2 0 0 1-.068 1.431l-1.929-.627a.818.818 0 0 0 .013.593.614.614 0 0 0 .383.335.492.492 0 0 0 .336 0 .635.635 0 0 0 .29-.258zm-2.809.143l-.788-.182.351-1.522a2.453 2.453 0 0 0 .094-.636.455.455 0 0 0-.114-.259.479.479 0 0 0-.255-.141.643.643 0 0 0-.394.026.584.584 0 0 0-.292.247 2.613 2.613 0 0 0-.219.671L45.137 9.9l-.789-.183.688-2.981.732.169-.1.438a1.253 1.253 0 0 1 1.555-.075.829.829 0 0 1 .272.316.888.888 0 0 1 .078.367 2.5 2.5 0 0 1-.079.54zm-5.5-2.468a1.012 1.012 0 0 0 .167.711.706.706 0 0 0 1.062.074 1.024 1.024 0 0 0 .264-.687 1 1 0 0 0-.167-.7.678.678 0 0 0-.512-.278.687.687 0 0 0-.549.2 1.01 1.01 0 0 0-.262.68zm-.825-.1a1.675 1.675 0 0 1 .252-.765 1.365 1.365 0 0 1 .6-.534 1.656 1.656 0 0 1 .826-.143 1.527 1.527 0 0 1 1.1.53 1.557 1.557 0 0 1 .363 1.168 1.583 1.583 0 0 1-.526 1.116 1.514 1.514 0 0 1-1.157.377 1.772 1.772 0 0 1-.787-.245 1.307 1.307 0 0 1-.541-.6 1.863 1.863 0 0 1-.127-.906zm-1.62 1.561l.073-4.223.81.014-.073 4.223zM37.04 7.773l-.69-1.524-.459 1.6zm1.683 1.557l-.926.065-.435-.932-1.684.118-.281.981-.9.063L35.841 5.3l.9-.062zm-7.111-.835a.781.781 0 0 0-.313-.47.584.584 0 0 0-.827.233.742.742 0 0 0-.029.55zm.167.8l.815-.079a1.328 1.328 0 0 1-.3.781 1.443 1.443 0 0 1-.752.442 1.369 1.369 0 0 1-1.276-.2A1.758 1.758 0 0 1 29.7 9.3a1.685 1.685 0 0 1 .077-1.255 1.306 1.306 0 0 1 .859-.676 1.361 1.361 0 0 1 1.158.157 2 2 0 0 1 .722 1.237l-1.959.525a.815.815 0 0 0 .334.49.616.616 0 0 0 .5.073.5.5 0 0 0 .282-.183.633.633 0 0 0 .106-.368zm-4.807.935a1.1 1.1 0 0 0 .432.6.581.581 0 0 0 .515.044.647.647 0 0 0 .385-.4 1.019 1.019 0 0 0-.056-.715 1.07 1.07 0 0 0-.436-.588.622.622 0 0 0-.545-.038.6.6 0 0 0-.366.383 1.062 1.062 0 0 0 .072.717zm-.032 1.935l.9-.226a.323.323 0 0 0 .179.169.609.609 0 0 0 .37-.05.929.929 0 0 0 .41-.26.393.393 0 0 0 .078-.249 1.275 1.275 0 0 0-.1-.36l-.16-.417a1.094 1.094 0 0 1-.678.791 1.127 1.127 0 0 1-1.1-.137 1.777 1.777 0 0 1-.631-.856 1.692 1.692 0 0 1-.075-1.232 1.2 1.2 0 0 1 .714-.709 1.122 1.122 0 0 1 1.052.13l-.154-.4.707-.272.984 2.563a2.727 2.727 0 0 1 .207.787.988.988 0 0 1-.083.483 1.112 1.112 0 0 1-.316.378 2.288 2.288 0 0 1-.606.325 1.769 1.769 0 0 1-1.126.147.838.838 0 0 1-.546-.514.52.52 0 0 0-.025-.089zm-3.369-.208a1.4 1.4 0 0 0 .462.554.612.612 0 0 0 .632.012.594.594 0 0 0 .3-.439 1.1 1.1 0 0 0-.173-.716 1.205 1.205 0 0 0-.534-.571.6.6 0 0 0-.54.033.608.608 0 0 0-.31.434 1.031 1.031 0 0 0 .164.696zm2.664.348l-.658.365-.218-.393a1.224 1.224 0 0 1-.2.556 1.14 1.14 0 0 1-.389.361 1.169 1.169 0 0 1-1 .067 1.736 1.736 0 0 1-.9-.855 1.714 1.714 0 0 1-.254-1.212 1.2 1.2 0 0 1 .613-.8 1.147 1.147 0 0 1 .983-.057l-.738-1.331.708-.392zm-4.709.7a.783.783 0 0 0-.455-.335.555.555 0 0 0-.449.091.562.562 0 0 0-.248.41.741.741 0 0 0 .161.527zm.431.7l.739-.353a1.317 1.317 0 0 1-.015.835 1.431 1.431 0 0 1-.555.671 1.365 1.365 0 0 1-1.266.251 1.753 1.753 0 0 1-.853-.69 1.687 1.687 0 0 1-.357-1.205 1.309 1.309 0 0 1 .576-.929 1.36 1.36 0 0 1 1.142-.249 2 2 0 0 1 1.1.916l-1.661 1.163a.814.814 0 0 0 .481.347.615.615 0 0 0 .5-.1.5.5 0 0 0 .2-.267.635.635 0 0 0-.03-.389zm-2.141 2.9L17.1 13.376l.62-.52 2.715 3.235zm-2.866 2.8l-2.874-1.429.547-.565 1.841.98-1.076-1.771.542-.562 1.8 1.026-1.036-1.814.554-.574 1.519 2.832-.541.56-1.782-.988 1.056 1.74zm-3.373 1.9a1.016 1.016 0 0 0 .692.235.689.689 0 0 0 .509-.29.68.68 0 0 0 .116-.571 1.022 1.022 0 0 0-.442-.588 1.006 1.006 0 0 0-.686-.232.682.682 0 0 0-.508.287.689.689 0 0 0-.117.574 1.011 1.011 0 0 0 .437.598zm-.523.646a1.667 1.667 0 0 1-.515-.62 1.366 1.366 0 0 1-.134-.793 1.668 1.668 0 0 1 .317-.776 1.526 1.526 0 0 1 1.034-.655 1.559 1.559 0 0 1 1.183.311 1.581 1.581 0 0 1 .668 1.039 1.514 1.514 0 0 1-.294 1.181 1.783 1.783 0 0 1-.625.537 1.307 1.307 0 0 1-.793.143 1.875 1.875 0 0 1-.84-.354zm.9 1.466l-.4.7-1.354-.767a2.4 2.4 0 0 0-.582-.276.457.457 0 0 0-.28.033.488.488 0 0 0-.21.2.658.658 0 0 0-.09.385.589.589 0 0 0 .15.351 2.652 2.652 0 0 0 .578.4l1.2.694-.4.7-2.649-1.53.376-.651.389.225a1.255 1.255 0 0 1 .383-1.51.827.827 0 0 1 .382-.167.9.9 0 0 1 .374.032 2.519 2.519 0 0 1 .493.233zm-2.985 6.323l-3.912-1.571.319-.79 1.739.7-1.093-2.3.43-1.063.929 2.091 3.019-.587-.413 1.023-2.273.333.4.906 1.184.478z" class="cls-1" data-name="Path 2459" transform="translate(-6.289 -5.115)"/>
    <path id="Path_2460" d="M44.646 47c-4.305-1.126-8.933-6.792-4.3-11.913s2.349-7.846 2.431-9.918c0 0 7.646 4.6 6.8 12.47-.817 7.56-6.864 7.682-4.927 9.361" class="cls-2" data-name="Path 2460" transform="translate(-10.865 -8.839)"/>
    <path id="Path_2461" d="M65.577 45.332a24.972 24.972 0 0 1-49.94 0 12.487 12.487 0 0 0 24.97-.322 12.487 12.487 0 0 0 24.97.322m-24.968-.484v0z" class="cls-2" data-name="Path 2461" transform="translate(-7.541 -13.068)"/>
</svg>
